# xmcd CD database file
#
# Track frame offsets:
#	150
#	12363
#	24188
#	39156
#	51961
#	65599
#	78896
#	93347
#	109471
#	120655
#	132069
#	144549
#	154762
#	167412
#
# Disc length: 2389 seconds
#
# Revision: 0
# Processed by: cddbd v1.5.2PL0 Copyright (c) Steve Scherf et al.
# Submitted via: CDex 1.51
#
DISCID=aa09530e
DTITLE=Slavko Avsenik Und Seine Original Oberkrainer - Slavko Avsenik Und Seine Original Oberkrainer - Freude an Musik CD 3
DYEAR=1900
DGENRE=Volksmusik
TTITLE0=Freude an Musik mit Avsenik
TTITLE1=Gitarrenecho
TTITLE2=Im Garten der Natur
TTITLE3=Lustige Polkaparty
TTITLE4=Danke für die Gastfreundschaft
TTITLE5=Tiroler Polka
TTITLE6=Der lustige Rentner
TTITLE7=Gitarren-Romanze
TTITLE8=Slowenische Grüße
TTITLE9=Hübsche Girls sind selten frei
TTITLE10=Polka bleibt Polka
TTITLE11=Beim Dorfwirt
TTITLE12=Saitensprung-Polka
TTITLE13=Bald kommen wir wieder
EXTD=
EXTT0=
EXTT1=
EXTT2=
EXTT3=
EXTT4=
EXTT5=
EXTT6=
EXTT7=
EXTT8=
EXTT9=
EXTT10=
EXTT11=
EXTT12=
EXTT13=
PLAYORDER=
